<svg width="20" height="20" viewBox="0 0 20 20" fill="none" xmlns="http://www.w3.org/2000/svg">
<path d="M5 8.33268V6.66602C5 3.90768 5.83333 1.66602 10 1.66602C14.1667 1.66602 15 3.90768 15 6.66602V8.33268" stroke="#8C8C8C" stroke-width="1.5" stroke-linecap="round" stroke-linejoin="round"/>
<path d="M9.99935 15.4167C11.1499 15.4167 12.0827 14.4839 12.0827 13.3333C12.0827 12.1827 11.1499 11.25 9.99935 11.25C8.84876 11.25 7.91602 12.1827 7.91602 13.3333C7.91602 14.4839 8.84876 15.4167 9.99935 15.4167Z" stroke="#BFBFBF" stroke-width="1.5" stroke-linecap="round" stroke-linejoin="round"/>
<path d="M14.166 18.334H5.83268C2.49935 18.334 1.66602 17.5007 1.66602 14.1673V12.5007C1.66602 9.16732 2.49935 8.33398 5.83268 8.33398H14.166C17.4993 8.33398 18.3327 9.16732 18.3327 12.5007V14.1673C18.3327 17.5007 17.4993 18.334 14.166 18.334Z" stroke="#BFBFBF" stroke-width="1.5" stroke-linecap="round" stroke-linejoin="round"/>
</svg>
